<svg width="140" height="95" viewBox="0 0 140 95" fill="none" xmlns="http://www.w3.org/2000/svg">
<path d="M69.5239 2.5C94.4484 2.50005 114.643 22.6531 114.643 47.5C114.643 72.3469 94.4484 92.5 69.5239 92.5C44.5995 92.5 24.4048 72.3469 24.4048 47.5C24.4048 22.6531 44.5995 2.5 69.5239 2.5Z" stroke="#9361FF" stroke-width="5"/>
<path d="M69.5239 2.5C94.4484 2.50005 114.643 22.6531 114.643 47.5C114.643 72.3469 94.4484 92.5 69.5239 92.5C44.5995 92.5 24.4048 72.3469 24.4048 47.5C24.4048 22.6531 44.5995 2.5 69.5239 2.5Z" stroke="#9361FF" stroke-width="5"/>
<path d="M11.4285 31.3499H128.571V64.5999H11.4285V31.3499Z" fill="#101322"/>
<path d="M21.378 52.9259C21.378 53.0286 21.336 53.0986 21.252 53.1359C21.168 53.1639 21.084 53.1779 21 53.1779H18.76C18.6107 53.1779 18.4753 53.1686 18.354 53.1499C18.2327 53.1312 18.116 53.0659 18.004 52.9539C17.92 52.8699 17.8453 52.7766 17.78 52.6739C17.7147 52.5712 17.6447 52.4732 17.57 52.3799C17.4207 52.1746 17.2713 51.9739 17.122 51.7779C16.9727 51.5819 16.8187 51.3812 16.66 51.1759L14.364 48.0679L13.93 48.4179C13.93 48.9686 13.9253 49.5239 13.916 50.0839C13.916 50.6346 13.916 51.1852 13.916 51.7359C13.916 51.8479 13.9207 51.9692 13.93 52.0999C13.9393 52.2306 13.9767 52.3426 14.042 52.4359C14.1073 52.5199 14.2193 52.5619 14.378 52.5619C14.4527 52.5619 14.5553 52.5619 14.686 52.5619C14.8167 52.5526 14.9193 52.5479 14.994 52.5479C15.078 52.5479 15.1527 52.5806 15.218 52.6459C15.2833 52.7019 15.316 52.7812 15.316 52.8839C15.316 53.0146 15.2833 53.0986 15.218 53.1359C15.162 53.1732 15.0687 53.1919 14.938 53.1919C14.6393 53.1919 14.336 53.1872 14.028 53.1779C13.7293 53.1779 13.4307 53.1779 13.132 53.1779C12.8053 53.1779 12.4553 53.1826 12.082 53.1919C11.7087 53.2106 11.3587 53.2199 11.032 53.2199C10.9387 53.2199 10.8547 53.1872 10.78 53.1219C10.7147 53.0566 10.682 52.9679 10.682 52.8559C10.682 52.6599 10.8267 52.5619 11.116 52.5619C11.508 52.5619 11.774 52.4826 11.914 52.3239C12.0633 52.1652 12.138 51.8946 12.138 51.5119C12.138 50.2892 12.1333 49.0386 12.124 47.7599C12.124 46.4719 12.124 45.2166 12.124 43.9939C12.124 43.8726 12.096 43.7232 12.04 43.5459C11.9933 43.3686 11.8907 43.2799 11.732 43.2799C11.6387 43.2799 11.5267 43.2799 11.396 43.2799C11.2653 43.2706 11.1533 43.2659 11.06 43.2659C10.976 43.2659 10.8967 43.2332 10.822 43.1679C10.7567 43.1026 10.724 43.0232 10.724 42.9299C10.724 42.7992 10.7613 42.7106 10.836 42.6639C10.9107 42.6172 11.0087 42.5939 11.13 42.5939C11.55 42.5939 11.97 42.5986 12.39 42.6079C12.81 42.6172 13.23 42.6219 13.65 42.6219C13.8647 42.6219 14.0793 42.6172 14.294 42.6079C14.5087 42.5986 14.7233 42.5939 14.938 42.5939C15.0313 42.5939 15.1107 42.6126 15.176 42.6499C15.2507 42.6872 15.288 42.7572 15.288 42.8599C15.288 43.0186 15.2553 43.1212 15.19 43.1679C15.134 43.2146 15.05 43.2426 14.938 43.2519C14.8633 43.2612 14.77 43.2659 14.658 43.2659C14.5553 43.2566 14.4667 43.2566 14.392 43.2659C14.252 43.2752 14.1353 43.3266 14.042 43.4199C13.9487 43.5039 13.902 43.6952 13.902 43.9939C13.902 44.5166 13.902 45.0812 13.902 45.6879C13.9113 46.2946 13.9113 46.8639 13.902 47.3959C14.602 46.7426 15.2927 46.0799 15.974 45.4079C16.6553 44.7266 17.304 44.0219 17.92 43.2939C17.9573 43.2472 18.0087 43.1819 18.074 43.0979C18.1487 43.0046 18.2187 42.9159 18.284 42.8319C18.3587 42.7479 18.41 42.6966 18.438 42.6779C18.4567 42.6686 18.4847 42.6592 18.522 42.6499C18.5593 42.6406 18.606 42.6312 18.662 42.6219C18.7553 42.6219 18.9 42.6219 19.096 42.6219C19.292 42.6126 19.4787 42.6079 19.656 42.6079C19.8333 42.5986 19.9453 42.5939 19.992 42.5939C20.0947 42.5939 20.216 42.5986 20.356 42.6079C20.5053 42.6172 20.58 42.7012 20.58 42.8599C20.58 42.9626 20.5473 43.0326 20.482 43.0699C20.4447 43.0979 20.4027 43.1166 20.356 43.1259C20.3187 43.1259 20.2813 43.1306 20.244 43.1399C19.9827 43.1866 19.7867 43.2426 19.656 43.3079C19.5253 43.3732 19.362 43.4992 19.166 43.6859L15.68 46.9619C16.2587 47.6806 16.828 48.4086 17.388 49.1459C17.9573 49.8832 18.5453 50.6019 19.152 51.3019C19.2827 51.4512 19.418 51.6006 19.558 51.7499C19.698 51.8899 19.8473 52.0252 20.006 52.1559C20.1273 52.2492 20.286 52.3332 20.482 52.4079C20.678 52.4826 20.8553 52.5432 21.014 52.5899C21.182 52.6272 21.2707 52.6552 21.28 52.6739C21.3453 52.7392 21.378 52.8232 21.378 52.9259ZM29.736 47.4239C29.736 47.3212 29.736 47.1299 29.736 46.8499C29.736 46.5699 29.736 46.2479 29.736 45.8839C29.736 45.5199 29.7313 45.1652 29.722 44.8199C29.7127 44.4652 29.6987 44.1619 29.68 43.9099C29.6707 43.6579 29.6567 43.5132 29.638 43.4759C29.61 43.4199 29.582 43.3779 29.554 43.3499C29.526 43.3219 29.4793 43.3079 29.414 43.3079H26.95C26.838 44.3252 26.726 45.3472 26.614 46.3739C26.5113 47.3912 26.3713 48.4039 26.194 49.4119C26.0167 50.4199 25.7553 51.4092 25.41 52.3799C26.1287 52.3799 26.8427 52.3799 27.552 52.3799C28.2707 52.3799 28.9847 52.3752 29.694 52.3659C29.7127 51.5446 29.722 50.7232 29.722 49.9019C29.7313 49.0712 29.736 48.2452 29.736 47.4239ZM33.418 54.0879C33.418 54.2652 33.3947 54.4239 33.348 54.5639C33.3013 54.7039 33.166 54.7739 32.942 54.7739C32.718 54.7739 32.55 54.6946 32.438 54.5359C32.326 54.3772 32.2233 54.1952 32.13 53.9899C32.0367 53.7939 31.906 53.6306 31.738 53.4999C31.5513 53.3506 31.29 53.2339 30.954 53.1499C30.618 53.0752 30.3287 53.0379 30.086 53.0379H25.928C25.648 53.0379 25.3307 53.0519 24.976 53.0799C24.6307 53.0986 24.2947 53.1546 23.968 53.2479C23.6507 53.3412 23.394 53.5046 23.198 53.7379C23.1233 53.8312 23.0487 53.9339 22.974 54.0459C22.9087 54.1672 22.8527 54.2746 22.806 54.3679C22.722 54.5172 22.6333 54.6059 22.54 54.6339C22.456 54.6712 22.3207 54.6899 22.134 54.6899C21.9753 54.6899 21.896 54.5919 21.896 54.3959C21.896 54.3119 21.91 54.1672 21.938 53.9619C21.966 53.7659 21.9987 53.5512 22.036 53.3179C22.0733 53.0939 22.1107 52.9026 22.148 52.7439C22.1947 52.5759 22.274 52.4639 22.386 52.4079C22.498 52.3426 22.6333 52.3099 22.792 52.3099C23.0627 52.3099 23.3193 52.2399 23.562 52.0999C23.814 51.9599 23.9867 51.7592 24.08 51.4979C24.5187 50.2659 24.8453 48.9732 25.06 47.6199C25.2747 46.2666 25.382 44.9366 25.382 43.6299C25.382 43.4152 25.2607 43.3079 25.018 43.3079C24.8593 43.3079 24.71 43.3172 24.57 43.3359C24.4393 43.3452 24.2947 43.3499 24.136 43.3499C23.9307 43.3499 23.828 43.2519 23.828 43.0559C23.828 42.8412 23.8607 42.7012 23.926 42.6359C23.9913 42.5612 24.1313 42.5239 24.346 42.5239C24.598 42.5239 24.85 42.5332 25.102 42.5519C25.354 42.5706 25.606 42.5799 25.858 42.5799H28.196C28.9147 42.5799 29.6287 42.5706 30.338 42.5519C31.0567 42.5239 31.7707 42.5099 32.48 42.5099C32.732 42.5099 32.858 42.6219 32.858 42.8459C32.858 43.0512 32.8113 43.1819 32.718 43.2379C32.634 43.2846 32.4987 43.3079 32.312 43.3079C32.2373 43.3079 32.1533 43.3079 32.06 43.3079C31.9667 43.2986 31.8827 43.2939 31.808 43.2939C31.6587 43.2939 31.5793 43.3639 31.57 43.5039C31.5607 43.6439 31.556 43.7606 31.556 43.8539C31.5467 44.4699 31.5373 45.1372 31.528 45.8559C31.528 46.5746 31.5233 47.2932 31.514 48.0119C31.514 48.7306 31.514 49.3979 31.514 50.0139C31.514 50.3966 31.514 50.7839 31.514 51.1759C31.5233 51.5679 31.5327 51.9552 31.542 52.3379C31.7473 52.3379 31.9527 52.3332 32.158 52.3239C32.3633 52.3146 32.5687 52.3099 32.774 52.3099C32.83 52.3099 32.8953 52.3146 32.97 52.3239C33.0447 52.3239 33.1053 52.3379 33.152 52.3659C33.236 52.4032 33.2873 52.4546 33.306 52.5199C33.334 52.5759 33.3527 52.6459 33.362 52.7299C33.39 52.9539 33.404 53.1779 33.404 53.4019C33.4133 53.6352 33.418 53.8639 33.418 54.0879ZM46.018 42.8459C46.018 42.9859 45.976 43.0792 45.892 43.1259C45.808 43.1726 45.6867 43.1959 45.528 43.1959C45.1733 43.1959 44.94 43.2799 44.828 43.4479C44.7253 43.6159 44.674 43.8586 44.674 44.1759C44.674 45.3892 44.674 46.6072 44.674 47.8299C44.6833 49.0432 44.688 50.2612 44.688 51.4839C44.688 51.6986 44.7253 51.8946 44.8 52.0719C44.8747 52.2399 45.0333 52.3426 45.276 52.3799C45.3507 52.3892 45.4207 52.3939 45.486 52.3939C45.5607 52.3939 45.6307 52.4126 45.696 52.4499C45.7707 52.4872 45.8127 52.5339 45.822 52.5899C45.8407 52.6366 45.8547 52.6972 45.864 52.7719C45.892 53.0052 45.906 53.2432 45.906 53.4859C45.9153 53.7286 45.92 53.9712 45.92 54.2139V54.3959C45.92 54.5172 45.8733 54.6199 45.78 54.7039C45.6867 54.7972 45.5793 54.8439 45.458 54.8439C45.262 54.8439 45.1033 54.7599 44.982 54.5919C44.8607 54.4239 44.7533 54.2372 44.66 54.0319C44.5667 53.8266 44.45 53.6632 44.31 53.5419C44.1233 53.3832 43.8947 53.2712 43.624 53.2059C43.3627 53.1406 43.092 53.0986 42.812 53.0799C42.532 53.0612 42.2753 53.0519 42.042 53.0519C41.23 53.0519 40.418 53.0566 39.606 53.0659C38.794 53.0659 37.982 53.0659 37.17 53.0659C36.9273 53.0659 36.6847 53.0752 36.442 53.0939C36.1993 53.1126 35.9567 53.1219 35.714 53.1219C35.6207 53.1219 35.518 53.0986 35.406 53.0519C35.294 52.9959 35.238 52.9119 35.238 52.7999C35.238 52.5946 35.308 52.4872 35.448 52.4779C35.5973 52.4686 35.742 52.4639 35.882 52.4639C36.1807 52.4639 36.3673 52.3566 36.442 52.1419C36.5167 51.9179 36.554 51.6846 36.554 51.4419V43.7419C36.554 43.5926 36.5307 43.4666 36.484 43.3639C36.4373 43.2519 36.3207 43.1959 36.134 43.1959C36.0593 43.1959 35.98 43.2006 35.896 43.2099C35.8213 43.2099 35.7467 43.2099 35.672 43.2099C35.588 43.2099 35.4947 43.1819 35.392 43.1259C35.2893 43.0699 35.238 42.9906 35.238 42.8879C35.238 42.7199 35.2847 42.6172 35.378 42.5799C35.4807 42.5426 35.5973 42.5239 35.728 42.5239C35.9987 42.5239 36.2693 42.5332 36.54 42.5519C36.8107 42.5612 37.0813 42.5659 37.352 42.5659C37.6693 42.5659 37.982 42.5612 38.29 42.5519C38.598 42.5332 38.9107 42.5239 39.228 42.5239C39.3213 42.5239 39.4007 42.5472 39.466 42.5939C39.5313 42.6312 39.564 42.7012 39.564 42.8039C39.564 43.0092 39.4893 43.1212 39.34 43.1399C39.2 43.1586 39.0553 43.1679 38.906 43.1679C38.71 43.1679 38.57 43.2239 38.486 43.3359C38.402 43.4386 38.3507 43.5692 38.332 43.7279C38.3133 43.8772 38.304 44.0266 38.304 44.1759V51.6099C38.304 51.9832 38.388 52.2166 38.556 52.3099C38.724 52.4032 38.9667 52.4499 39.284 52.4499C39.7507 52.4499 40.2127 52.4452 40.67 52.4359C41.1273 52.4266 41.5847 52.4219 42.042 52.4219C42.3967 52.4219 42.63 52.3426 42.742 52.1839C42.8633 52.0159 42.924 51.7686 42.924 51.4419C42.924 50.1912 42.9193 48.9406 42.91 47.6899C42.91 46.4299 42.91 45.1746 42.91 43.9239C42.91 43.7559 42.8867 43.5972 42.84 43.4479C42.8027 43.2892 42.6767 43.2099 42.462 43.2099C42.3873 43.2099 42.308 43.2146 42.224 43.2239C42.14 43.2239 42.0607 43.2239 41.986 43.2239C41.902 43.2239 41.8087 43.1959 41.706 43.1399C41.6127 43.0746 41.566 42.9952 41.566 42.9019C41.566 42.7619 41.6033 42.6686 41.678 42.6219C41.762 42.5659 41.8647 42.5379 41.986 42.5379C42.266 42.5379 42.546 42.5426 42.826 42.5519C43.106 42.5519 43.386 42.5519 43.666 42.5519C43.9833 42.5519 44.3007 42.5426 44.618 42.5239C44.9353 42.5052 45.2527 42.4959 45.57 42.4959C45.6727 42.4959 45.7707 42.5192 45.864 42.5659C45.9667 42.6032 46.018 42.6966 46.018 42.8459ZM67.578 42.8739C67.578 43.0326 67.5313 43.1352 67.438 43.1819C67.3447 43.2192 67.228 43.2379 67.088 43.2379C66.948 43.2379 66.808 43.2566 66.668 43.2939C66.528 43.3219 66.4113 43.4059 66.318 43.5459C66.2247 43.6859 66.178 43.9192 66.178 44.2459C66.178 45.4872 66.178 46.7332 66.178 47.9839C66.1873 49.2346 66.192 50.4852 66.192 51.7359C66.192 51.9039 66.2107 52.0719 66.248 52.2399C66.2853 52.4079 66.416 52.4919 66.64 52.4919C66.7147 52.4919 66.808 52.4919 66.92 52.4919C67.032 52.4826 67.1253 52.4779 67.2 52.4779C67.284 52.4779 67.3633 52.5059 67.438 52.5619C67.5127 52.6179 67.55 52.6972 67.55 52.7999C67.55 52.9772 67.48 53.0799 67.34 53.1079C67.2093 53.1359 67.0787 53.1499 66.948 53.1499C66.6587 53.1499 66.3693 53.1452 66.08 53.1359C65.7907 53.1172 65.5013 53.1079 65.212 53.1079C64.932 53.1079 64.652 53.1172 64.372 53.1359C64.092 53.1546 63.812 53.1639 63.532 53.1639C63.4293 53.1639 63.3407 53.1499 63.266 53.1219C63.1913 53.0846 63.154 53.0052 63.154 52.8839C63.154 52.6506 63.252 52.5339 63.448 52.5339C63.4947 52.5339 63.5553 52.5339 63.63 52.5339C63.7047 52.5339 63.77 52.5339 63.826 52.5339C64.022 52.5339 64.162 52.4779 64.246 52.3659C64.33 52.2539 64.3813 52.1186 64.4 51.9599C64.4187 51.7919 64.428 51.6379 64.428 51.4979V44.1899C64.428 44.1152 64.428 44.0406 64.428 43.9659C64.428 43.8819 64.428 43.8026 64.428 43.7279C64.428 43.6252 64.4093 43.5272 64.372 43.4339C64.344 43.3312 64.2647 43.2799 64.134 43.2799L59.444 43.2519C59.2667 43.2519 59.1593 43.3312 59.122 43.4899C59.094 43.6392 59.08 43.7792 59.08 43.9099C59.08 45.2072 59.08 46.5092 59.08 47.8159C59.0893 49.1226 59.094 50.4292 59.094 51.7359C59.094 51.8386 59.0987 51.9646 59.108 52.1139C59.1267 52.2539 59.1827 52.3566 59.276 52.4219C59.3507 52.4779 59.4813 52.5059 59.668 52.5059C59.8547 52.5059 59.9947 52.5059 60.088 52.5059C60.1627 52.5059 60.242 52.5292 60.326 52.5759C60.41 52.6226 60.452 52.6972 60.452 52.7999C60.452 52.9586 60.4007 53.0566 60.298 53.0939C60.1953 53.1219 60.0787 53.1359 59.948 53.1359C59.6587 53.1359 59.3647 53.1312 59.066 53.1219C58.7673 53.1126 58.4687 53.1079 58.17 53.1079C57.8713 53.1079 57.568 53.1172 57.26 53.1359C56.9613 53.1546 56.6627 53.1639 56.364 53.1639C56.2613 53.1639 56.168 53.1452 56.084 53.1079C56 53.0706 55.958 52.9912 55.958 52.8699C55.958 52.7392 55.9907 52.6506 56.056 52.6039C56.1213 52.5572 56.1867 52.5339 56.252 52.5339C56.6533 52.5339 56.9333 52.4592 57.092 52.3099C57.2507 52.1512 57.33 51.8806 57.33 51.4979C57.33 50.2752 57.3253 49.0572 57.316 47.8439C57.316 46.6212 57.316 45.4032 57.316 44.1899C57.316 44.0779 57.2973 43.9519 57.26 43.8119C57.232 43.6626 57.1807 43.5366 57.106 43.4339C57.0313 43.3219 56.9193 43.2659 56.77 43.2659C56.7047 43.2659 56.6253 43.2659 56.532 43.2659C56.448 43.2566 56.3687 43.2519 56.294 43.2519C56.21 43.2519 56.126 43.2286 56.042 43.1819C55.958 43.1259 55.916 43.0512 55.916 42.9579C55.916 42.7992 55.9627 42.6919 56.056 42.6359C56.1493 42.5706 56.2613 42.5379 56.392 42.5379C56.7 42.5379 57.022 42.5472 57.358 42.5659C57.7033 42.5752 58.03 42.5799 58.338 42.5799C59.066 42.5799 59.794 42.5846 60.522 42.5939C61.25 42.5939 61.978 42.5939 62.706 42.5939H65.576C65.828 42.5939 66.08 42.5846 66.332 42.5659C66.5933 42.5472 66.85 42.5379 67.102 42.5379C67.2047 42.5379 67.3073 42.5659 67.41 42.6219C67.522 42.6779 67.578 42.7619 67.578 42.8739ZM77.56 47.8159C77.56 47.2932 77.4993 46.7519 77.378 46.1919C77.266 45.6319 77.0793 45.1139 76.818 44.6379C76.5567 44.1619 76.2113 43.7792 75.782 43.4899C75.3527 43.1912 74.8207 43.0419 74.186 43.0419C73.5793 43.0419 73.0567 43.2006 72.618 43.5179C72.1887 43.8259 71.834 44.2272 71.554 44.7219C71.2833 45.2166 71.0827 45.7486 70.952 46.3179C70.8213 46.8779 70.756 47.4099 70.756 47.9139C70.756 48.4459 70.8167 48.9872 70.938 49.5379C71.0593 50.0792 71.2553 50.5832 71.526 51.0499C71.7967 51.5166 72.1513 51.8946 72.59 52.1839C73.0287 52.4639 73.5607 52.6039 74.186 52.6039C74.8207 52.6039 75.3527 52.4592 75.782 52.1699C76.2113 51.8712 76.5567 51.4839 76.818 51.0079C77.0793 50.5226 77.266 49.9999 77.378 49.4399C77.4993 48.8799 77.56 48.3386 77.56 47.8159ZM79.632 47.7879C79.632 48.9359 79.4173 49.9159 78.988 50.7279C78.5587 51.5399 77.938 52.1652 77.126 52.6039C76.314 53.0332 75.334 53.2479 74.186 53.2479C73.0753 53.2479 72.114 53.0379 71.302 52.6179C70.4993 52.1886 69.8833 51.5772 69.454 50.7839C69.0247 49.9906 68.81 49.0339 68.81 47.9139C68.81 47.1206 68.936 46.3926 69.188 45.7299C69.4493 45.0579 69.818 44.4746 70.294 43.9799C70.77 43.4852 71.3347 43.1026 71.988 42.8319C72.6507 42.5612 73.3833 42.4259 74.186 42.4259C75.3153 42.4259 76.286 42.6359 77.098 43.0559C77.91 43.4759 78.5353 44.0872 78.974 44.8899C79.4127 45.6832 79.632 46.6492 79.632 47.7879ZM89.74 50.1679C89.74 49.4866 89.5813 48.9359 89.264 48.5159C88.956 48.0959 88.438 47.8859 87.71 47.8859C87.5887 47.8859 87.4627 47.8859 87.332 47.8859C87.2107 47.8766 87.0847 47.8719 86.954 47.8719C86.674 47.8719 86.3893 47.8766 86.1 47.8859C85.82 47.8952 85.54 47.9092 85.26 47.9279V52.1699C85.26 52.3752 85.3253 52.5106 85.456 52.5759C85.596 52.6412 85.7547 52.6739 85.932 52.6739C86.1187 52.6739 86.31 52.6739 86.506 52.6739C86.7113 52.6646 86.912 52.6552 87.108 52.6459C87.612 52.6086 88.06 52.5012 88.452 52.3239C88.8533 52.1372 89.166 51.8666 89.39 51.5119C89.6233 51.1572 89.74 50.7092 89.74 50.1679ZM91.714 49.9579C91.714 51.3859 91.0467 52.3612 89.712 52.8839C89.32 53.0332 88.8767 53.1219 88.382 53.1499C87.8967 53.1779 87.444 53.1919 87.024 53.1919C86.548 53.1919 86.072 53.1826 85.596 53.1639C85.1293 53.1546 84.658 53.1499 84.182 53.1499C83.902 53.1499 83.5987 53.1546 83.272 53.1639C82.9453 53.1826 82.642 53.1919 82.362 53.1919C82.278 53.1919 82.194 53.1686 82.11 53.1219C82.0353 53.0752 81.998 53.0006 81.998 52.8979C81.998 52.7766 82.0353 52.6972 82.11 52.6599C82.1847 52.6226 82.2687 52.6039 82.362 52.6039C82.4927 52.6039 82.614 52.6039 82.726 52.6039C82.838 52.5946 82.9267 52.5852 82.992 52.5759C83.188 52.5292 83.3093 52.4546 83.356 52.3519C83.412 52.2399 83.4447 52.0952 83.454 51.9179C83.4727 51.7592 83.482 51.6006 83.482 51.4419C83.482 51.2739 83.482 51.1106 83.482 50.9519C83.482 49.7759 83.4773 48.6046 83.468 47.4379C83.468 46.2619 83.468 45.0859 83.468 43.9099C83.468 43.7886 83.4447 43.6719 83.398 43.5599C83.3607 43.4386 83.2767 43.3546 83.146 43.3079C83.0527 43.2706 82.9407 43.2566 82.81 43.2659C82.6887 43.2659 82.5767 43.2659 82.474 43.2659C82.39 43.2659 82.3013 43.2426 82.208 43.1959C82.124 43.1492 82.082 43.0699 82.082 42.9579C82.082 42.8926 82.1147 42.8272 82.18 42.7619C82.2547 42.6872 82.3247 42.6499 82.39 42.6499C82.5113 42.6499 82.642 42.6546 82.782 42.6639C82.9313 42.6732 83.0667 42.6779 83.188 42.6779C83.7387 42.6779 84.2893 42.6826 84.84 42.6919C85.3907 42.7012 85.9367 42.7059 86.478 42.7059C87.2153 42.7059 87.9527 42.6919 88.69 42.6639C88.9233 42.6452 89.1707 42.6312 89.432 42.6219C89.7027 42.6126 89.9547 42.6079 90.188 42.6079C90.3 42.6079 90.37 42.6359 90.398 42.6919C90.426 42.7386 90.4447 42.8086 90.454 42.9019C90.4913 43.0979 90.5333 43.3312 90.58 43.6019C90.636 43.8632 90.6827 44.1059 90.72 44.3299C90.7667 44.5539 90.79 44.7032 90.79 44.7779C90.79 44.9179 90.7433 45.0252 90.65 45.0999C90.5567 45.1746 90.4307 45.2119 90.272 45.2119C90.1133 45.2119 90.006 45.1792 89.95 45.1139C89.894 45.0486 89.8473 44.9506 89.81 44.8199C89.726 44.5026 89.6 44.2366 89.432 44.0219C89.264 43.7979 89.0213 43.6252 88.704 43.5039C88.508 43.4199 88.2513 43.3639 87.934 43.3359C87.6167 43.3079 87.2947 43.2939 86.968 43.2939C86.6507 43.2846 86.38 43.2799 86.156 43.2799C86.1187 43.2799 86.0393 43.2799 85.918 43.2799C85.7967 43.2799 85.68 43.2799 85.568 43.2799C85.456 43.2799 85.3907 43.2846 85.372 43.2939C85.2973 43.3219 85.26 43.3732 85.26 43.4479V47.3119C86.0067 47.2839 86.7533 47.2699 87.5 47.2699C87.8267 47.2699 88.1487 47.2746 88.466 47.2839C88.7833 47.2932 89.1007 47.3352 89.418 47.4099C89.8473 47.5032 90.2347 47.6666 90.58 47.8999C90.9253 48.1239 91.2007 48.4086 91.406 48.7539C91.6113 49.0899 91.714 49.4912 91.714 49.9579ZM104.174 50.3359C104.174 50.3732 104.165 50.4199 104.146 50.4759C104.137 50.5319 104.127 50.5786 104.118 50.6159C104.099 50.7372 104.076 50.9006 104.048 51.1059C104.02 51.3019 103.992 51.5026 103.964 51.7079C103.945 51.9039 103.927 52.0672 103.908 52.1979C103.889 52.3752 103.875 52.5106 103.866 52.6039C103.866 52.6879 103.866 52.7812 103.866 52.8839C103.866 52.9679 103.829 53.0379 103.754 53.0939C103.717 53.1219 103.647 53.1406 103.544 53.1499C103.441 53.1499 103.367 53.1499 103.32 53.1499C102.331 53.1499 101.341 53.1452 100.352 53.1359C99.3627 53.1266 98.3733 53.1219 97.384 53.1219C96.992 53.1219 96.5953 53.1312 96.194 53.1499C95.802 53.1686 95.41 53.1779 95.018 53.1779C94.8687 53.1779 94.7613 53.1546 94.696 53.1079C94.6307 53.0519 94.598 52.9492 94.598 52.7999C94.598 52.6226 94.6493 52.5199 94.752 52.4919C94.864 52.4639 94.99 52.4499 95.13 52.4499C95.2327 52.4499 95.3447 52.4499 95.466 52.4499C95.5967 52.4499 95.7087 52.4499 95.802 52.4499C95.9887 52.4499 96.1147 52.3752 96.18 52.2259C96.2453 52.0766 96.278 51.9086 96.278 51.7219C96.2873 51.5259 96.292 51.3672 96.292 51.2459C96.292 50.2192 96.2967 49.1926 96.306 48.1659C96.3153 47.1392 96.32 46.1172 96.32 45.0999C96.32 44.8946 96.32 44.6939 96.32 44.4979C96.32 44.2926 96.3107 44.0872 96.292 43.8819C96.2827 43.6766 96.25 43.5506 96.194 43.5039C96.1473 43.4572 96.0213 43.4339 95.816 43.4339C95.704 43.4339 95.592 43.4386 95.48 43.4479C95.3773 43.4479 95.27 43.4479 95.158 43.4479C95.0833 43.4479 94.9947 43.4059 94.892 43.3219C94.7987 43.2379 94.752 43.1586 94.752 43.0839C94.752 42.9719 94.8033 42.8739 94.906 42.7899C95.0087 42.7059 95.1113 42.6639 95.214 42.6639C95.3633 42.6639 95.5127 42.6686 95.662 42.6779C95.8113 42.6872 95.9607 42.6919 96.11 42.6919H99.442C99.806 42.6919 100.17 42.6919 100.534 42.6919C100.898 42.6826 101.262 42.6732 101.626 42.6639C101.859 42.6546 102.088 42.6452 102.312 42.6359C102.545 42.6172 102.779 42.6079 103.012 42.6079C103.115 42.6079 103.208 42.6172 103.292 42.6359C103.376 42.6452 103.423 42.7012 103.432 42.8039C103.451 42.8972 103.474 43.0419 103.502 43.2379C103.53 43.4246 103.563 43.6252 103.6 43.8399C103.647 44.0452 103.689 44.2319 103.726 44.3999C103.745 44.4746 103.763 44.5492 103.782 44.6239C103.81 44.6986 103.824 44.7732 103.824 44.8479C103.824 44.9599 103.759 45.0486 103.628 45.1139C103.497 45.1792 103.39 45.2119 103.306 45.2119C103.138 45.2119 103.031 45.1606 102.984 45.0579C102.937 44.9552 102.877 44.8386 102.802 44.7079C102.718 44.5399 102.611 44.3626 102.48 44.1759C102.359 43.9799 102.167 43.8072 101.906 43.6579C101.645 43.4992 101.271 43.4012 100.786 43.3639C100.581 43.3452 100.375 43.3359 100.17 43.3359C99.974 43.3359 99.7733 43.3359 99.568 43.3359C99.3533 43.3359 99.1387 43.3406 98.924 43.3499C98.7187 43.3499 98.5087 43.3499 98.294 43.3499C98.1353 43.3499 98.056 43.4339 98.056 43.6019V47.3259C98.224 47.3259 98.3873 47.3306 98.546 47.3399C98.714 47.3399 98.882 47.3399 99.05 47.3399C99.4887 47.3399 99.9273 47.3259 100.366 47.2979C100.814 47.2699 101.253 47.2139 101.682 47.1299C101.813 47.1112 101.943 47.0879 102.074 47.0599C102.205 47.0319 102.335 47.0179 102.466 47.0179C102.522 47.0179 102.578 47.0319 102.634 47.0599C102.69 47.0786 102.718 47.1252 102.718 47.1999C102.718 47.2466 102.681 47.3446 102.606 47.4939C102.531 47.6339 102.447 47.7692 102.354 47.8999C102.27 48.0212 102.205 48.0819 102.158 48.0819H101.962C101.477 48.0819 100.996 48.0679 100.52 48.0399C100.044 48.0026 99.5633 47.9839 99.078 47.9839C98.9473 47.9839 98.8027 47.9932 98.644 48.0119C98.4853 48.0306 98.3453 48.0772 98.224 48.1519C98.112 48.2266 98.056 48.3526 98.056 48.5299V51.9179C98.056 52.1699 98.1073 52.3239 98.21 52.3799C98.322 52.4359 98.49 52.4639 98.714 52.4639H100.002C100.422 52.4639 100.865 52.4266 101.332 52.3519C101.808 52.2772 102.209 52.0952 102.536 51.8059C102.667 51.6939 102.788 51.5539 102.9 51.3859C103.012 51.2086 103.101 51.0452 103.166 50.8959C103.185 50.8586 103.208 50.7979 103.236 50.7139C103.273 50.6299 103.311 50.5459 103.348 50.4619C103.385 50.3779 103.404 50.3266 103.404 50.3079C103.451 50.2052 103.502 50.1399 103.558 50.1119C103.623 50.0746 103.721 50.0559 103.852 50.0559C103.964 50.0559 104.043 50.0886 104.09 50.1539C104.146 50.2192 104.174 50.2799 104.174 50.3359ZM113.736 47.4239C113.736 47.3212 113.736 47.1299 113.736 46.8499C113.736 46.5699 113.736 46.2479 113.736 45.8839C113.736 45.5199 113.731 45.1652 113.722 44.8199C113.713 44.4652 113.699 44.1619 113.68 43.9099C113.671 43.6579 113.657 43.5132 113.638 43.4759C113.61 43.4199 113.582 43.3779 113.554 43.3499C113.526 43.3219 113.479 43.3079 113.414 43.3079H110.95C110.838 44.3252 110.726 45.3472 110.614 46.3739C110.511 47.3912 110.371 48.4039 110.194 49.4119C110.017 50.4199 109.755 51.4092 109.41 52.3799C110.129 52.3799 110.843 52.3799 111.552 52.3799C112.271 52.3799 112.985 52.3752 113.694 52.3659C113.713 51.5446 113.722 50.7232 113.722 49.9019C113.731 49.0712 113.736 48.2452 113.736 47.4239ZM117.418 54.0879C117.418 54.2652 117.395 54.4239 117.348 54.5639C117.301 54.7039 117.166 54.7739 116.942 54.7739C116.718 54.7739 116.55 54.6946 116.438 54.5359C116.326 54.3772 116.223 54.1952 116.13 53.9899C116.037 53.7939 115.906 53.6306 115.738 53.4999C115.551 53.3506 115.29 53.2339 114.954 53.1499C114.618 53.0752 114.329 53.0379 114.086 53.0379H109.928C109.648 53.0379 109.331 53.0519 108.976 53.0799C108.631 53.0986 108.295 53.1546 107.968 53.2479C107.651 53.3412 107.394 53.5046 107.198 53.7379C107.123 53.8312 107.049 53.9339 106.974 54.0459C106.909 54.1672 106.853 54.2746 106.806 54.3679C106.722 54.5172 106.633 54.6059 106.54 54.6339C106.456 54.6712 106.321 54.6899 106.134 54.6899C105.975 54.6899 105.896 54.5919 105.896 54.3959C105.896 54.3119 105.91 54.1672 105.938 53.9619C105.966 53.7659 105.999 53.5512 106.036 53.3179C106.073 53.0939 106.111 52.9026 106.148 52.7439C106.195 52.5759 106.274 52.4639 106.386 52.4079C106.498 52.3426 106.633 52.3099 106.792 52.3099C107.063 52.3099 107.319 52.2399 107.562 52.0999C107.814 51.9599 107.987 51.7592 108.08 51.4979C108.519 50.2659 108.845 48.9732 109.06 47.6199C109.275 46.2666 109.382 44.9366 109.382 43.6299C109.382 43.4152 109.261 43.3079 109.018 43.3079C108.859 43.3079 108.71 43.3172 108.57 43.3359C108.439 43.3452 108.295 43.3499 108.136 43.3499C107.931 43.3499 107.828 43.2519 107.828 43.0559C107.828 42.8412 107.861 42.7012 107.926 42.6359C107.991 42.5612 108.131 42.5239 108.346 42.5239C108.598 42.5239 108.85 42.5332 109.102 42.5519C109.354 42.5706 109.606 42.5799 109.858 42.5799H112.196C112.915 42.5799 113.629 42.5706 114.338 42.5519C115.057 42.5239 115.771 42.5099 116.48 42.5099C116.732 42.5099 116.858 42.6219 116.858 42.8459C116.858 43.0512 116.811 43.1819 116.718 43.2379C116.634 43.2846 116.499 43.3079 116.312 43.3079C116.237 43.3079 116.153 43.3079 116.06 43.3079C115.967 43.2986 115.883 43.2939 115.808 43.2939C115.659 43.2939 115.579 43.3639 115.57 43.5039C115.561 43.6439 115.556 43.7606 115.556 43.8539C115.547 44.4699 115.537 45.1372 115.528 45.8559C115.528 46.5746 115.523 47.2932 115.514 48.0119C115.514 48.7306 115.514 49.3979 115.514 50.0139C115.514 50.3966 115.514 50.7839 115.514 51.1759C115.523 51.5679 115.533 51.9552 115.542 52.3379C115.747 52.3379 115.953 52.3332 116.158 52.3239C116.363 52.3146 116.569 52.3099 116.774 52.3099C116.83 52.3099 116.895 52.3146 116.97 52.3239C117.045 52.3239 117.105 52.3379 117.152 52.3659C117.236 52.4032 117.287 52.4546 117.306 52.5199C117.334 52.5759 117.353 52.6459 117.362 52.7299C117.39 52.9539 117.404 53.1779 117.404 53.4019C117.413 53.6352 117.418 53.8639 117.418 54.0879ZM125.804 48.8519C125.533 48.1052 125.263 47.3586 124.992 46.6119C124.731 45.8652 124.465 45.1186 124.194 44.3719C123.923 45.1186 123.648 45.8652 123.368 46.6119C123.097 47.3586 122.813 48.1052 122.514 48.8519H125.804ZM130.578 52.8419C130.578 52.9352 130.545 53.0192 130.48 53.0939C130.415 53.1592 130.335 53.1919 130.242 53.1919C129.953 53.1919 129.649 53.1826 129.332 53.1639C129.024 53.1546 128.725 53.1499 128.436 53.1499C128.053 53.1499 127.652 53.1546 127.232 53.1639C126.821 53.1732 126.425 53.1779 126.042 53.1779C125.977 53.1779 125.911 53.1452 125.846 53.0799C125.79 53.0052 125.762 52.9352 125.762 52.8699C125.762 52.6832 125.823 52.5852 125.944 52.5759C126.075 52.5666 126.201 52.5619 126.322 52.5619C126.453 52.5619 126.597 52.5479 126.756 52.5199C126.915 52.4826 126.994 52.3799 126.994 52.2119C126.994 52.1186 126.952 51.9506 126.868 51.7079C126.784 51.4559 126.681 51.1806 126.56 50.8819C126.448 50.5739 126.341 50.2892 126.238 50.0279C126.135 49.7666 126.061 49.5799 126.014 49.4679H122.318C122.29 49.5519 122.234 49.6966 122.15 49.9019C122.075 50.1072 121.991 50.3406 121.898 50.6019C121.805 50.8539 121.711 51.1059 121.618 51.3579C121.534 51.6006 121.464 51.8152 121.408 52.0019C121.352 52.1886 121.324 52.3052 121.324 52.3519C121.324 52.4172 121.347 52.4826 121.394 52.5479C121.45 52.6039 121.539 52.6272 121.66 52.6179C121.837 52.6086 121.996 52.5992 122.136 52.5899C122.285 52.5806 122.383 52.5759 122.43 52.5759C122.505 52.5759 122.57 52.6039 122.626 52.6599C122.691 52.7159 122.724 52.7906 122.724 52.8839C122.724 52.9772 122.668 53.0472 122.556 53.0939C122.453 53.1406 122.365 53.1639 122.29 53.1639L120.75 53.1499H119.112C118.944 53.1499 118.86 53.0566 118.86 52.8699C118.86 52.7672 118.893 52.6972 118.958 52.6599C119.033 52.6226 119.126 52.5992 119.238 52.5899C119.453 52.5619 119.653 52.5059 119.84 52.4219C120.036 52.3286 120.213 52.1232 120.372 51.8059C120.428 51.7032 120.475 51.5959 120.512 51.4839C120.559 51.3626 120.601 51.2459 120.638 51.1339C121.189 49.7339 121.721 48.3292 122.234 46.9199C122.757 45.5012 123.27 44.0826 123.774 42.6639C123.914 42.6359 124.073 42.6032 124.25 42.5659C124.437 42.5286 124.609 42.4959 124.768 42.4679C124.936 42.4306 125.062 42.4072 125.146 42.3979C125.249 42.3886 125.323 42.4399 125.37 42.5519L128.562 50.8119C128.637 50.9986 128.707 51.1899 128.772 51.3859C128.847 51.5819 128.931 51.7732 129.024 51.9599C129.173 52.2212 129.355 52.3799 129.57 52.4359C129.785 52.4826 129.981 52.5059 130.158 52.5059C130.317 52.5152 130.424 52.5432 130.48 52.5899C130.545 52.6272 130.578 52.7112 130.578 52.8419Z" fill="white"/>
</svg>
