<svg width="131" height="89" viewBox="0 0 131 89" fill="none" xmlns="http://www.w3.org/2000/svg">
<path d="M16.878 49.776C16.878 49.8787 16.836 49.9487 16.752 49.986C16.668 50.014 16.584 50.028 16.5 50.028H14.26C14.1107 50.028 13.9753 50.0187 13.854 50C13.7327 49.9813 13.616 49.916 13.504 49.804C13.42 49.72 13.3453 49.6267 13.28 49.524C13.2147 49.4213 13.1447 49.3233 13.07 49.23C12.9207 49.0247 12.7713 48.824 12.622 48.628C12.4727 48.432 12.3187 48.2313 12.16 48.026L9.864 44.918L9.43 45.268C9.43 45.8187 9.42534 46.374 9.416 46.934C9.416 47.4847 9.416 48.0353 9.416 48.586C9.416 48.698 9.42067 48.8193 9.43 48.95C9.43934 49.0807 9.47667 49.1927 9.542 49.286C9.60734 49.37 9.71934 49.412 9.878 49.412C9.95267 49.412 10.0553 49.412 10.186 49.412C10.3167 49.4027 10.4193 49.398 10.494 49.398C10.578 49.398 10.6527 49.4307 10.718 49.496C10.7833 49.552 10.816 49.6313 10.816 49.734C10.816 49.8647 10.7833 49.9487 10.718 49.986C10.662 50.0233 10.5687 50.042 10.438 50.042C10.1393 50.042 9.836 50.0373 9.528 50.028C9.22933 50.028 8.93067 50.028 8.632 50.028C8.30534 50.028 7.95533 50.0327 7.582 50.042C7.20867 50.0607 6.85867 50.07 6.532 50.07C6.43867 50.07 6.35467 50.0373 6.28 49.972C6.21467 49.9067 6.182 49.818 6.182 49.706C6.182 49.51 6.32667 49.412 6.616 49.412C7.008 49.412 7.274 49.3327 7.414 49.174C7.56334 49.0153 7.638 48.7447 7.638 48.362C7.638 47.1393 7.63334 45.8887 7.624 44.61C7.624 43.322 7.624 42.0667 7.624 40.844C7.624 40.7227 7.596 40.5733 7.54 40.396C7.49334 40.2187 7.39067 40.13 7.232 40.13C7.13867 40.13 7.02667 40.13 6.896 40.13C6.76533 40.1207 6.65333 40.116 6.56 40.116C6.476 40.116 6.39667 40.0833 6.322 40.018C6.25667 39.9527 6.224 39.8733 6.224 39.78C6.224 39.6493 6.26133 39.5607 6.336 39.514C6.41067 39.4673 6.50867 39.444 6.63 39.444C7.05 39.444 7.47 39.4487 7.89 39.458C8.31 39.4673 8.73 39.472 9.15 39.472C9.36467 39.472 9.57934 39.4673 9.794 39.458C10.0087 39.4487 10.2233 39.444 10.438 39.444C10.5313 39.444 10.6107 39.4627 10.676 39.5C10.7507 39.5373 10.788 39.6073 10.788 39.71C10.788 39.8687 10.7553 39.9713 10.69 40.018C10.634 40.0647 10.55 40.0927 10.438 40.102C10.3633 40.1113 10.27 40.116 10.158 40.116C10.0553 40.1067 9.96667 40.1067 9.892 40.116C9.752 40.1253 9.63534 40.1767 9.542 40.27C9.44867 40.354 9.402 40.5453 9.402 40.844C9.402 41.3667 9.402 41.9313 9.402 42.538C9.41134 43.1447 9.41134 43.714 9.402 44.246C10.102 43.5927 10.7927 42.93 11.474 42.258C12.1553 41.5767 12.804 40.872 13.42 40.144C13.4573 40.0973 13.5087 40.032 13.574 39.948C13.6487 39.8547 13.7187 39.766 13.784 39.682C13.8587 39.598 13.91 39.5467 13.938 39.528C13.9567 39.5187 13.9847 39.5093 14.022 39.5C14.0593 39.4907 14.106 39.4813 14.162 39.472C14.2553 39.472 14.4 39.472 14.596 39.472C14.792 39.4627 14.9787 39.458 15.156 39.458C15.3333 39.4487 15.4453 39.444 15.492 39.444C15.5947 39.444 15.716 39.4487 15.856 39.458C16.0053 39.4673 16.08 39.5513 16.08 39.71C16.08 39.8127 16.0473 39.8827 15.982 39.92C15.9447 39.948 15.9027 39.9667 15.856 39.976C15.8187 39.976 15.7813 39.9807 15.744 39.99C15.4827 40.0367 15.2867 40.0927 15.156 40.158C15.0253 40.2233 14.862 40.3493 14.666 40.536L11.18 43.812C11.7587 44.5307 12.328 45.2587 12.888 45.996C13.4573 46.7333 14.0453 47.452 14.652 48.152C14.7827 48.3013 14.918 48.4507 15.058 48.6C15.198 48.74 15.3473 48.8753 15.506 49.006C15.6273 49.0993 15.786 49.1833 15.982 49.258C16.178 49.3327 16.3553 49.3933 16.514 49.44C16.682 49.4773 16.7707 49.5053 16.78 49.524C16.8453 49.5893 16.878 49.6733 16.878 49.776ZM25.236 44.274C25.236 44.1713 25.236 43.98 25.236 43.7C25.236 43.42 25.236 43.098 25.236 42.734C25.236 42.37 25.2313 42.0153 25.222 41.67C25.2127 41.3153 25.1987 41.012 25.18 40.76C25.1707 40.508 25.1567 40.3633 25.138 40.326C25.11 40.27 25.082 40.228 25.054 40.2C25.026 40.172 24.9793 40.158 24.914 40.158H22.45C22.338 41.1753 22.226 42.1973 22.114 43.224C22.0113 44.2413 21.8713 45.254 21.694 46.262C21.5167 47.27 21.2553 48.2593 20.91 49.23C21.6287 49.23 22.3427 49.23 23.052 49.23C23.7707 49.23 24.4847 49.2253 25.194 49.216C25.2127 48.3947 25.222 47.5733 25.222 46.752C25.2313 45.9213 25.236 45.0953 25.236 44.274ZM28.918 50.938C28.918 51.1153 28.8947 51.274 28.848 51.414C28.8013 51.554 28.666 51.624 28.442 51.624C28.218 51.624 28.05 51.5447 27.938 51.386C27.826 51.2273 27.7233 51.0453 27.63 50.84C27.5367 50.644 27.406 50.4807 27.238 50.35C27.0513 50.2007 26.79 50.084 26.454 50C26.118 49.9253 25.8287 49.888 25.586 49.888H21.428C21.148 49.888 20.8307 49.902 20.476 49.93C20.1307 49.9487 19.7947 50.0047 19.468 50.098C19.1507 50.1913 18.894 50.3547 18.698 50.588C18.6233 50.6813 18.5487 50.784 18.474 50.896C18.4087 51.0173 18.3527 51.1247 18.306 51.218C18.222 51.3673 18.1333 51.456 18.04 51.484C17.956 51.5213 17.8207 51.54 17.634 51.54C17.4753 51.54 17.396 51.442 17.396 51.246C17.396 51.162 17.41 51.0173 17.438 50.812C17.466 50.616 17.4987 50.4013 17.536 50.168C17.5733 49.944 17.6107 49.7527 17.648 49.594C17.6947 49.426 17.774 49.314 17.886 49.258C17.998 49.1927 18.1333 49.16 18.292 49.16C18.5627 49.16 18.8193 49.09 19.062 48.95C19.314 48.81 19.4867 48.6093 19.58 48.348C20.0187 47.116 20.3453 45.8233 20.56 44.47C20.7747 43.1167 20.882 41.7867 20.882 40.48C20.882 40.2653 20.7607 40.158 20.518 40.158C20.3593 40.158 20.21 40.1673 20.07 40.186C19.9393 40.1953 19.7947 40.2 19.636 40.2C19.4307 40.2 19.328 40.102 19.328 39.906C19.328 39.6913 19.3607 39.5513 19.426 39.486C19.4913 39.4113 19.6313 39.374 19.846 39.374C20.098 39.374 20.35 39.3833 20.602 39.402C20.854 39.4207 21.106 39.43 21.358 39.43H23.696C24.4147 39.43 25.1287 39.4207 25.838 39.402C26.5567 39.374 27.2707 39.36 27.98 39.36C28.232 39.36 28.358 39.472 28.358 39.696C28.358 39.9013 28.3113 40.032 28.218 40.088C28.134 40.1347 27.9987 40.158 27.812 40.158C27.7373 40.158 27.6533 40.158 27.56 40.158C27.4667 40.1487 27.3827 40.144 27.308 40.144C27.1587 40.144 27.0793 40.214 27.07 40.354C27.0607 40.494 27.056 40.6107 27.056 40.704C27.0467 41.32 27.0373 41.9873 27.028 42.706C27.028 43.4247 27.0233 44.1433 27.014 44.862C27.014 45.5807 27.014 46.248 27.014 46.864C27.014 47.2467 27.014 47.634 27.014 48.026C27.0233 48.418 27.0327 48.8053 27.042 49.188C27.2473 49.188 27.4527 49.1833 27.658 49.174C27.8633 49.1647 28.0687 49.16 28.274 49.16C28.33 49.16 28.3953 49.1647 28.47 49.174C28.5447 49.174 28.6053 49.188 28.652 49.216C28.736 49.2533 28.7873 49.3047 28.806 49.37C28.834 49.426 28.8527 49.496 28.862 49.58C28.89 49.804 28.904 50.028 28.904 50.252C28.9133 50.4853 28.918 50.714 28.918 50.938ZM41.518 39.696C41.518 39.836 41.476 39.9293 41.392 39.976C41.308 40.0227 41.1867 40.046 41.028 40.046C40.6733 40.046 40.44 40.13 40.328 40.298C40.2253 40.466 40.174 40.7087 40.174 41.026C40.174 42.2393 40.174 43.4573 40.174 44.68C40.1833 45.8933 40.188 47.1113 40.188 48.334C40.188 48.5487 40.2253 48.7447 40.3 48.922C40.3747 49.09 40.5333 49.1927 40.776 49.23C40.8507 49.2393 40.9207 49.244 40.986 49.244C41.0607 49.244 41.1307 49.2627 41.196 49.3C41.2707 49.3373 41.3127 49.384 41.322 49.44C41.3407 49.4867 41.3547 49.5473 41.364 49.622C41.392 49.8553 41.406 50.0933 41.406 50.336C41.4153 50.5787 41.42 50.8213 41.42 51.064V51.246C41.42 51.3673 41.3733 51.47 41.28 51.554C41.1867 51.6473 41.0793 51.694 40.958 51.694C40.762 51.694 40.6033 51.61 40.482 51.442C40.3607 51.274 40.2533 51.0873 40.16 50.882C40.0667 50.6767 39.95 50.5133 39.81 50.392C39.6233 50.2333 39.3947 50.1213 39.124 50.056C38.8627 49.9907 38.592 49.9487 38.312 49.93C38.032 49.9113 37.7753 49.902 37.542 49.902C36.73 49.902 35.918 49.9067 35.106 49.916C34.294 49.916 33.482 49.916 32.67 49.916C32.4273 49.916 32.1847 49.9253 31.942 49.944C31.6993 49.9627 31.4567 49.972 31.214 49.972C31.1207 49.972 31.018 49.9487 30.906 49.902C30.794 49.846 30.738 49.762 30.738 49.65C30.738 49.4447 30.808 49.3373 30.948 49.328C31.0973 49.3187 31.242 49.314 31.382 49.314C31.6807 49.314 31.8673 49.2067 31.942 48.992C32.0167 48.768 32.054 48.5347 32.054 48.292V40.592C32.054 40.4427 32.0307 40.3167 31.984 40.214C31.9373 40.102 31.8207 40.046 31.634 40.046C31.5593 40.046 31.48 40.0507 31.396 40.06C31.3213 40.06 31.2467 40.06 31.172 40.06C31.088 40.06 30.9947 40.032 30.892 39.976C30.7893 39.92 30.738 39.8407 30.738 39.738C30.738 39.57 30.7847 39.4673 30.878 39.43C30.9807 39.3927 31.0973 39.374 31.228 39.374C31.4987 39.374 31.7693 39.3833 32.04 39.402C32.3107 39.4113 32.5813 39.416 32.852 39.416C33.1693 39.416 33.482 39.4113 33.79 39.402C34.098 39.3833 34.4107 39.374 34.728 39.374C34.8213 39.374 34.9007 39.3973 34.966 39.444C35.0313 39.4813 35.064 39.5513 35.064 39.654C35.064 39.8593 34.9893 39.9713 34.84 39.99C34.7 40.0087 34.5553 40.018 34.406 40.018C34.21 40.018 34.07 40.074 33.986 40.186C33.902 40.2887 33.8507 40.4193 33.832 40.578C33.8133 40.7273 33.804 40.8767 33.804 41.026V48.46C33.804 48.8333 33.888 49.0667 34.056 49.16C34.224 49.2533 34.4667 49.3 34.784 49.3C35.2507 49.3 35.7127 49.2953 36.17 49.286C36.6273 49.2767 37.0847 49.272 37.542 49.272C37.8967 49.272 38.13 49.1927 38.242 49.034C38.3633 48.866 38.424 48.6187 38.424 48.292C38.424 47.0413 38.4193 45.7907 38.41 44.54C38.41 43.28 38.41 42.0247 38.41 40.774C38.41 40.606 38.3867 40.4473 38.34 40.298C38.3027 40.1393 38.1767 40.06 37.962 40.06C37.8873 40.06 37.808 40.0647 37.724 40.074C37.64 40.074 37.5607 40.074 37.486 40.074C37.402 40.074 37.3087 40.046 37.206 39.99C37.1127 39.9247 37.066 39.8453 37.066 39.752C37.066 39.612 37.1033 39.5187 37.178 39.472C37.262 39.416 37.3647 39.388 37.486 39.388C37.766 39.388 38.046 39.3927 38.326 39.402C38.606 39.402 38.886 39.402 39.166 39.402C39.4833 39.402 39.8007 39.3927 40.118 39.374C40.4353 39.3553 40.7527 39.346 41.07 39.346C41.1727 39.346 41.2707 39.3693 41.364 39.416C41.4667 39.4533 41.518 39.5467 41.518 39.696ZM63.078 39.724C63.078 39.8827 63.0313 39.9853 62.938 40.032C62.8447 40.0693 62.728 40.088 62.588 40.088C62.448 40.088 62.308 40.1067 62.168 40.144C62.028 40.172 61.9113 40.256 61.818 40.396C61.7247 40.536 61.678 40.7693 61.678 41.096C61.678 42.3373 61.678 43.5833 61.678 44.834C61.6873 46.0847 61.692 47.3353 61.692 48.586C61.692 48.754 61.7107 48.922 61.748 49.09C61.7853 49.258 61.916 49.342 62.14 49.342C62.2147 49.342 62.308 49.342 62.42 49.342C62.532 49.3327 62.6253 49.328 62.7 49.328C62.784 49.328 62.8633 49.356 62.938 49.412C63.0127 49.468 63.05 49.5473 63.05 49.65C63.05 49.8273 62.98 49.93 62.84 49.958C62.7093 49.986 62.5787 50 62.448 50C62.1587 50 61.8693 49.9953 61.58 49.986C61.2907 49.9673 61.0013 49.958 60.712 49.958C60.432 49.958 60.152 49.9673 59.872 49.986C59.592 50.0047 59.312 50.014 59.032 50.014C58.9293 50.014 58.8407 50 58.766 49.972C58.6913 49.9347 58.654 49.8553 58.654 49.734C58.654 49.5007 58.752 49.384 58.948 49.384C58.9947 49.384 59.0553 49.384 59.13 49.384C59.2047 49.384 59.27 49.384 59.326 49.384C59.522 49.384 59.662 49.328 59.746 49.216C59.83 49.104 59.8813 48.9687 59.9 48.81C59.9187 48.642 59.928 48.488 59.928 48.348V41.04C59.928 40.9653 59.928 40.8907 59.928 40.816C59.928 40.732 59.928 40.6527 59.928 40.578C59.928 40.4753 59.9093 40.3773 59.872 40.284C59.844 40.1813 59.7647 40.13 59.634 40.13L54.944 40.102C54.7667 40.102 54.6593 40.1813 54.622 40.34C54.594 40.4893 54.58 40.6293 54.58 40.76C54.58 42.0573 54.58 43.3593 54.58 44.666C54.5893 45.9727 54.594 47.2793 54.594 48.586C54.594 48.6887 54.5987 48.8147 54.608 48.964C54.6267 49.104 54.6827 49.2067 54.776 49.272C54.8507 49.328 54.9813 49.356 55.168 49.356C55.3547 49.356 55.4947 49.356 55.588 49.356C55.6627 49.356 55.742 49.3793 55.826 49.426C55.91 49.4727 55.952 49.5473 55.952 49.65C55.952 49.8087 55.9007 49.9067 55.798 49.944C55.6953 49.972 55.5787 49.986 55.448 49.986C55.1587 49.986 54.8647 49.9813 54.566 49.972C54.2673 49.9627 53.9687 49.958 53.67 49.958C53.3713 49.958 53.068 49.9673 52.76 49.986C52.4613 50.0047 52.1627 50.014 51.864 50.014C51.7613 50.014 51.668 49.9953 51.584 49.958C51.5 49.9207 51.458 49.8413 51.458 49.72C51.458 49.5893 51.4907 49.5007 51.556 49.454C51.6213 49.4073 51.6867 49.384 51.752 49.384C52.1533 49.384 52.4333 49.3093 52.592 49.16C52.7507 49.0013 52.83 48.7307 52.83 48.348C52.83 47.1253 52.8253 45.9073 52.816 44.694C52.816 43.4713 52.816 42.2533 52.816 41.04C52.816 40.928 52.7973 40.802 52.76 40.662C52.732 40.5127 52.6807 40.3867 52.606 40.284C52.5313 40.172 52.4193 40.116 52.27 40.116C52.2047 40.116 52.1253 40.116 52.032 40.116C51.948 40.1067 51.8687 40.102 51.794 40.102C51.71 40.102 51.626 40.0787 51.542 40.032C51.458 39.976 51.416 39.9013 51.416 39.808C51.416 39.6493 51.4627 39.542 51.556 39.486C51.6493 39.4207 51.7613 39.388 51.892 39.388C52.2 39.388 52.522 39.3973 52.858 39.416C53.2033 39.4253 53.53 39.43 53.838 39.43C54.566 39.43 55.294 39.4347 56.022 39.444C56.75 39.444 57.478 39.444 58.206 39.444H61.076C61.328 39.444 61.58 39.4347 61.832 39.416C62.0933 39.3973 62.35 39.388 62.602 39.388C62.7047 39.388 62.8073 39.416 62.91 39.472C63.022 39.528 63.078 39.612 63.078 39.724ZM73.06 44.666C73.06 44.1433 72.9993 43.602 72.878 43.042C72.766 42.482 72.5793 41.964 72.318 41.488C72.0567 41.012 71.7113 40.6293 71.282 40.34C70.8527 40.0413 70.3207 39.892 69.686 39.892C69.0793 39.892 68.5567 40.0507 68.118 40.368C67.6887 40.676 67.334 41.0773 67.054 41.572C66.7833 42.0667 66.5827 42.5987 66.452 43.168C66.3213 43.728 66.256 44.26 66.256 44.764C66.256 45.296 66.3167 45.8373 66.438 46.388C66.5593 46.9293 66.7553 47.4333 67.026 47.9C67.2967 48.3667 67.6513 48.7447 68.09 49.034C68.5287 49.314 69.0607 49.454 69.686 49.454C70.3207 49.454 70.8527 49.3093 71.282 49.02C71.7113 48.7213 72.0567 48.334 72.318 47.858C72.5793 47.3727 72.766 46.85 72.878 46.29C72.9993 45.73 73.06 45.1887 73.06 44.666ZM75.132 44.638C75.132 45.786 74.9173 46.766 74.488 47.578C74.0587 48.39 73.438 49.0153 72.626 49.454C71.814 49.8833 70.834 50.098 69.686 50.098C68.5753 50.098 67.614 49.888 66.802 49.468C65.9993 49.0387 65.3833 48.4273 64.954 47.634C64.5247 46.8407 64.31 45.884 64.31 44.764C64.31 43.9707 64.436 43.2427 64.688 42.58C64.9493 41.908 65.318 41.3247 65.794 40.83C66.27 40.3353 66.8347 39.9527 67.488 39.682C68.1507 39.4113 68.8833 39.276 69.686 39.276C70.8153 39.276 71.786 39.486 72.598 39.906C73.41 40.326 74.0353 40.9373 74.474 41.74C74.9127 42.5333 75.132 43.4993 75.132 44.638ZM85.24 47.018C85.24 46.3367 85.0813 45.786 84.764 45.366C84.456 44.946 83.938 44.736 83.21 44.736C83.0887 44.736 82.9627 44.736 82.832 44.736C82.7107 44.7267 82.5847 44.722 82.454 44.722C82.174 44.722 81.8893 44.7267 81.6 44.736C81.32 44.7453 81.04 44.7593 80.76 44.778V49.02C80.76 49.2253 80.8253 49.3607 80.956 49.426C81.096 49.4913 81.2547 49.524 81.432 49.524C81.6187 49.524 81.81 49.524 82.006 49.524C82.2113 49.5147 82.412 49.5053 82.608 49.496C83.112 49.4587 83.56 49.3513 83.952 49.174C84.3533 48.9873 84.666 48.7167 84.89 48.362C85.1233 48.0073 85.24 47.5593 85.24 47.018ZM87.214 46.808C87.214 48.236 86.5467 49.2113 85.212 49.734C84.82 49.8833 84.3767 49.972 83.882 50C83.3967 50.028 82.944 50.042 82.524 50.042C82.048 50.042 81.572 50.0327 81.096 50.014C80.6293 50.0047 80.158 50 79.682 50C79.402 50 79.0987 50.0047 78.772 50.014C78.4453 50.0327 78.142 50.042 77.862 50.042C77.778 50.042 77.694 50.0187 77.61 49.972C77.5353 49.9253 77.498 49.8507 77.498 49.748C77.498 49.6267 77.5353 49.5473 77.61 49.51C77.6847 49.4727 77.7687 49.454 77.862 49.454C77.9927 49.454 78.114 49.454 78.226 49.454C78.338 49.4447 78.4267 49.4353 78.492 49.426C78.688 49.3793 78.8093 49.3047 78.856 49.202C78.912 49.09 78.9447 48.9453 78.954 48.768C78.9727 48.6093 78.982 48.4507 78.982 48.292C78.982 48.124 78.982 47.9607 78.982 47.802C78.982 46.626 78.9773 45.4547 78.968 44.288C78.968 43.112 78.968 41.936 78.968 40.76C78.968 40.6387 78.9447 40.522 78.898 40.41C78.8607 40.2887 78.7767 40.2047 78.646 40.158C78.5527 40.1207 78.4407 40.1067 78.31 40.116C78.1887 40.116 78.0767 40.116 77.974 40.116C77.89 40.116 77.8013 40.0927 77.708 40.046C77.624 39.9993 77.582 39.92 77.582 39.808C77.582 39.7427 77.6147 39.6773 77.68 39.612C77.7547 39.5373 77.8247 39.5 77.89 39.5C78.0113 39.5 78.142 39.5047 78.282 39.514C78.4313 39.5233 78.5667 39.528 78.688 39.528C79.2387 39.528 79.7893 39.5327 80.34 39.542C80.8907 39.5513 81.4367 39.556 81.978 39.556C82.7153 39.556 83.4527 39.542 84.19 39.514C84.4233 39.4953 84.6707 39.4813 84.932 39.472C85.2027 39.4627 85.4547 39.458 85.688 39.458C85.8 39.458 85.87 39.486 85.898 39.542C85.926 39.5887 85.9447 39.6587 85.954 39.752C85.9913 39.948 86.0333 40.1813 86.08 40.452C86.136 40.7133 86.1827 40.956 86.22 41.18C86.2667 41.404 86.29 41.5533 86.29 41.628C86.29 41.768 86.2433 41.8753 86.15 41.95C86.0567 42.0247 85.9307 42.062 85.772 42.062C85.6133 42.062 85.506 42.0293 85.45 41.964C85.394 41.8987 85.3473 41.8007 85.31 41.67C85.226 41.3527 85.1 41.0867 84.932 40.872C84.764 40.648 84.5213 40.4753 84.204 40.354C84.008 40.27 83.7513 40.214 83.434 40.186C83.1167 40.158 82.7947 40.144 82.468 40.144C82.1507 40.1347 81.88 40.13 81.656 40.13C81.6187 40.13 81.5393 40.13 81.418 40.13C81.2967 40.13 81.18 40.13 81.068 40.13C80.956 40.13 80.8907 40.1347 80.872 40.144C80.7973 40.172 80.76 40.2233 80.76 40.298V44.162C81.5067 44.134 82.2533 44.12 83 44.12C83.3267 44.12 83.6487 44.1247 83.966 44.134C84.2833 44.1433 84.6007 44.1853 84.918 44.26C85.3473 44.3533 85.7347 44.5167 86.08 44.75C86.4253 44.974 86.7007 45.2587 86.906 45.604C87.1113 45.94 87.214 46.3413 87.214 46.808ZM99.674 47.186C99.674 47.2233 99.6647 47.27 99.646 47.326C99.6367 47.382 99.6273 47.4287 99.618 47.466C99.5993 47.5873 99.576 47.7507 99.548 47.956C99.52 48.152 99.492 48.3527 99.464 48.558C99.4453 48.754 99.4267 48.9173 99.408 49.048C99.3893 49.2253 99.3753 49.3607 99.366 49.454C99.366 49.538 99.366 49.6313 99.366 49.734C99.366 49.818 99.3287 49.888 99.254 49.944C99.2167 49.972 99.1467 49.9907 99.044 50C98.9413 50 98.8667 50 98.82 50C97.8307 50 96.8413 49.9953 95.852 49.986C94.8627 49.9767 93.8733 49.972 92.884 49.972C92.492 49.972 92.0953 49.9813 91.694 50C91.302 50.0187 90.91 50.028 90.518 50.028C90.3687 50.028 90.2613 50.0047 90.196 49.958C90.1307 49.902 90.098 49.7993 90.098 49.65C90.098 49.4727 90.1493 49.37 90.252 49.342C90.364 49.314 90.49 49.3 90.63 49.3C90.7327 49.3 90.8447 49.3 90.966 49.3C91.0967 49.3 91.2087 49.3 91.302 49.3C91.4887 49.3 91.6147 49.2253 91.68 49.076C91.7453 48.9267 91.778 48.7587 91.778 48.572C91.7873 48.376 91.792 48.2173 91.792 48.096C91.792 47.0693 91.7967 46.0427 91.806 45.016C91.8153 43.9893 91.82 42.9673 91.82 41.95C91.82 41.7447 91.82 41.544 91.82 41.348C91.82 41.1427 91.8107 40.9373 91.792 40.732C91.7827 40.5267 91.75 40.4007 91.694 40.354C91.6473 40.3073 91.5213 40.284 91.316 40.284C91.204 40.284 91.092 40.2887 90.98 40.298C90.8773 40.298 90.77 40.298 90.658 40.298C90.5833 40.298 90.4947 40.256 90.392 40.172C90.2987 40.088 90.252 40.0087 90.252 39.934C90.252 39.822 90.3033 39.724 90.406 39.64C90.5087 39.556 90.6113 39.514 90.714 39.514C90.8633 39.514 91.0127 39.5187 91.162 39.528C91.3113 39.5373 91.4607 39.542 91.61 39.542H94.942C95.306 39.542 95.67 39.542 96.034 39.542C96.398 39.5327 96.762 39.5233 97.126 39.514C97.3593 39.5047 97.588 39.4953 97.812 39.486C98.0453 39.4673 98.2787 39.458 98.512 39.458C98.6147 39.458 98.708 39.4673 98.792 39.486C98.876 39.4953 98.9227 39.5513 98.932 39.654C98.9507 39.7473 98.974 39.892 99.002 40.088C99.03 40.2747 99.0627 40.4753 99.1 40.69C99.1467 40.8953 99.1887 41.082 99.226 41.25C99.2447 41.3247 99.2633 41.3993 99.282 41.474C99.31 41.5487 99.324 41.6233 99.324 41.698C99.324 41.81 99.2587 41.8987 99.128 41.964C98.9973 42.0293 98.89 42.062 98.806 42.062C98.638 42.062 98.5307 42.0107 98.484 41.908C98.4373 41.8053 98.3767 41.6887 98.302 41.558C98.218 41.39 98.1107 41.2127 97.98 41.026C97.8587 40.83 97.6673 40.6573 97.406 40.508C97.1447 40.3493 96.7713 40.2513 96.286 40.214C96.0807 40.1953 95.8753 40.186 95.67 40.186C95.474 40.186 95.2733 40.186 95.068 40.186C94.8533 40.186 94.6387 40.1907 94.424 40.2C94.2187 40.2 94.0087 40.2 93.794 40.2C93.6353 40.2 93.556 40.284 93.556 40.452V44.176C93.724 44.176 93.8873 44.1807 94.046 44.19C94.214 44.19 94.382 44.19 94.55 44.19C94.9887 44.19 95.4273 44.176 95.866 44.148C96.314 44.12 96.7527 44.064 97.182 43.98C97.3127 43.9613 97.4433 43.938 97.574 43.91C97.7047 43.882 97.8353 43.868 97.966 43.868C98.022 43.868 98.078 43.882 98.134 43.91C98.19 43.9287 98.218 43.9753 98.218 44.05C98.218 44.0967 98.1807 44.1947 98.106 44.344C98.0313 44.484 97.9473 44.6193 97.854 44.75C97.77 44.8713 97.7047 44.932 97.658 44.932H97.462C96.9767 44.932 96.496 44.918 96.02 44.89C95.544 44.8527 95.0633 44.834 94.578 44.834C94.4473 44.834 94.3027 44.8433 94.144 44.862C93.9853 44.8807 93.8453 44.9273 93.724 45.002C93.612 45.0767 93.556 45.2027 93.556 45.38V48.768C93.556 49.02 93.6073 49.174 93.71 49.23C93.822 49.286 93.99 49.314 94.214 49.314H95.502C95.922 49.314 96.3653 49.2767 96.832 49.202C97.308 49.1273 97.7093 48.9453 98.036 48.656C98.1667 48.544 98.288 48.404 98.4 48.236C98.512 48.0587 98.6007 47.8953 98.666 47.746C98.6847 47.7087 98.708 47.648 98.736 47.564C98.7733 47.48 98.8107 47.396 98.848 47.312C98.8853 47.228 98.904 47.1767 98.904 47.158C98.9507 47.0553 99.002 46.99 99.058 46.962C99.1233 46.9247 99.2213 46.906 99.352 46.906C99.464 46.906 99.5433 46.9387 99.59 47.004C99.646 47.0693 99.674 47.13 99.674 47.186ZM109.236 44.274C109.236 44.1713 109.236 43.98 109.236 43.7C109.236 43.42 109.236 43.098 109.236 42.734C109.236 42.37 109.231 42.0153 109.222 41.67C109.213 41.3153 109.199 41.012 109.18 40.76C109.171 40.508 109.157 40.3633 109.138 40.326C109.11 40.27 109.082 40.228 109.054 40.2C109.026 40.172 108.979 40.158 108.914 40.158H106.45C106.338 41.1753 106.226 42.1973 106.114 43.224C106.011 44.2413 105.871 45.254 105.694 46.262C105.517 47.27 105.255 48.2593 104.91 49.23C105.629 49.23 106.343 49.23 107.052 49.23C107.771 49.23 108.485 49.2253 109.194 49.216C109.213 48.3947 109.222 47.5733 109.222 46.752C109.231 45.9213 109.236 45.0953 109.236 44.274ZM112.918 50.938C112.918 51.1153 112.895 51.274 112.848 51.414C112.801 51.554 112.666 51.624 112.442 51.624C112.218 51.624 112.05 51.5447 111.938 51.386C111.826 51.2273 111.723 51.0453 111.63 50.84C111.537 50.644 111.406 50.4807 111.238 50.35C111.051 50.2007 110.79 50.084 110.454 50C110.118 49.9253 109.829 49.888 109.586 49.888H105.428C105.148 49.888 104.831 49.902 104.476 49.93C104.131 49.9487 103.795 50.0047 103.468 50.098C103.151 50.1913 102.894 50.3547 102.698 50.588C102.623 50.6813 102.549 50.784 102.474 50.896C102.409 51.0173 102.353 51.1247 102.306 51.218C102.222 51.3673 102.133 51.456 102.04 51.484C101.956 51.5213 101.821 51.54 101.634 51.54C101.475 51.54 101.396 51.442 101.396 51.246C101.396 51.162 101.41 51.0173 101.438 50.812C101.466 50.616 101.499 50.4013 101.536 50.168C101.573 49.944 101.611 49.7527 101.648 49.594C101.695 49.426 101.774 49.314 101.886 49.258C101.998 49.1927 102.133 49.16 102.292 49.16C102.563 49.16 102.819 49.09 103.062 48.95C103.314 48.81 103.487 48.6093 103.58 48.348C104.019 47.116 104.345 45.8233 104.56 44.47C104.775 43.1167 104.882 41.7867 104.882 40.48C104.882 40.2653 104.761 40.158 104.518 40.158C104.359 40.158 104.21 40.1673 104.07 40.186C103.939 40.1953 103.795 40.2 103.636 40.2C103.431 40.2 103.328 40.102 103.328 39.906C103.328 39.6913 103.361 39.5513 103.426 39.486C103.491 39.4113 103.631 39.374 103.846 39.374C104.098 39.374 104.35 39.3833 104.602 39.402C104.854 39.4207 105.106 39.43 105.358 39.43H107.696C108.415 39.43 109.129 39.4207 109.838 39.402C110.557 39.374 111.271 39.36 111.98 39.36C112.232 39.36 112.358 39.472 112.358 39.696C112.358 39.9013 112.311 40.032 112.218 40.088C112.134 40.1347 111.999 40.158 111.812 40.158C111.737 40.158 111.653 40.158 111.56 40.158C111.467 40.1487 111.383 40.144 111.308 40.144C111.159 40.144 111.079 40.214 111.07 40.354C111.061 40.494 111.056 40.6107 111.056 40.704C111.047 41.32 111.037 41.9873 111.028 42.706C111.028 43.4247 111.023 44.1433 111.014 44.862C111.014 45.5807 111.014 46.248 111.014 46.864C111.014 47.2467 111.014 47.634 111.014 48.026C111.023 48.418 111.033 48.8053 111.042 49.188C111.247 49.188 111.453 49.1833 111.658 49.174C111.863 49.1647 112.069 49.16 112.274 49.16C112.33 49.16 112.395 49.1647 112.47 49.174C112.545 49.174 112.605 49.188 112.652 49.216C112.736 49.2533 112.787 49.3047 112.806 49.37C112.834 49.426 112.853 49.496 112.862 49.58C112.89 49.804 112.904 50.028 112.904 50.252C112.913 50.4853 112.918 50.714 112.918 50.938ZM121.304 45.702C121.033 44.9553 120.763 44.2087 120.492 43.462C120.231 42.7153 119.965 41.9687 119.694 41.222C119.423 41.9687 119.148 42.7153 118.868 43.462C118.597 44.2087 118.313 44.9553 118.014 45.702H121.304ZM126.078 49.692C126.078 49.7853 126.045 49.8693 125.98 49.944C125.915 50.0093 125.835 50.042 125.742 50.042C125.453 50.042 125.149 50.0327 124.832 50.014C124.524 50.0047 124.225 50 123.936 50C123.553 50 123.152 50.0047 122.732 50.014C122.321 50.0233 121.925 50.028 121.542 50.028C121.477 50.028 121.411 49.9953 121.346 49.93C121.29 49.8553 121.262 49.7853 121.262 49.72C121.262 49.5333 121.323 49.4353 121.444 49.426C121.575 49.4167 121.701 49.412 121.822 49.412C121.953 49.412 122.097 49.398 122.256 49.37C122.415 49.3327 122.494 49.23 122.494 49.062C122.494 48.9687 122.452 48.8007 122.368 48.558C122.284 48.306 122.181 48.0307 122.06 47.732C121.948 47.424 121.841 47.1393 121.738 46.878C121.635 46.6167 121.561 46.43 121.514 46.318H117.818C117.79 46.402 117.734 46.5467 117.65 46.752C117.575 46.9573 117.491 47.1907 117.398 47.452C117.305 47.704 117.211 47.956 117.118 48.208C117.034 48.4507 116.964 48.6653 116.908 48.852C116.852 49.0387 116.824 49.1553 116.824 49.202C116.824 49.2673 116.847 49.3327 116.894 49.398C116.95 49.454 117.039 49.4773 117.16 49.468C117.337 49.4587 117.496 49.4493 117.636 49.44C117.785 49.4307 117.883 49.426 117.93 49.426C118.005 49.426 118.07 49.454 118.126 49.51C118.191 49.566 118.224 49.6407 118.224 49.734C118.224 49.8273 118.168 49.8973 118.056 49.944C117.953 49.9907 117.865 50.014 117.79 50.014L116.25 50H114.612C114.444 50 114.36 49.9067 114.36 49.72C114.36 49.6173 114.393 49.5473 114.458 49.51C114.533 49.4727 114.626 49.4493 114.738 49.44C114.953 49.412 115.153 49.356 115.34 49.272C115.536 49.1787 115.713 48.9733 115.872 48.656C115.928 48.5533 115.975 48.446 116.012 48.334C116.059 48.2127 116.101 48.096 116.138 47.984C116.689 46.584 117.221 45.1793 117.734 43.77C118.257 42.3513 118.77 40.9327 119.274 39.514C119.414 39.486 119.573 39.4533 119.75 39.416C119.937 39.3787 120.109 39.346 120.268 39.318C120.436 39.2807 120.562 39.2573 120.646 39.248C120.749 39.2387 120.823 39.29 120.87 39.402L124.062 47.662C124.137 47.8487 124.207 48.04 124.272 48.236C124.347 48.432 124.431 48.6233 124.524 48.81C124.673 49.0713 124.855 49.23 125.07 49.286C125.285 49.3327 125.481 49.356 125.658 49.356C125.817 49.3653 125.924 49.3933 125.98 49.44C126.045 49.4773 126.078 49.5613 126.078 49.692Z" fill="white"/>
<path d="M108.821 55.1104C104.03 74.5 86.478 88.8799 65.5576 88.8799C44.6373 88.8798 27.0865 74.5 22.2949 55.1104H27.4668C32.1333 71.7016 47.4107 83.8798 65.5576 83.8799C83.7047 83.8799 98.982 71.7017 103.648 55.1104H108.821ZM65.5576 0C85.8361 0 102.948 13.5117 108.343 32H103.104C97.8803 16.3197 83.0529 5 65.5576 5C48.0624 5.00009 33.2349 16.3198 28.0107 32H22.7725C28.1675 13.5118 45.2792 9.15079e-05 65.5576 0Z" fill="#9361FF"/>
</svg>
